<?xml version="1.0" encoding="utf-8"?>
<!-- Generator: Adobe Illustrator 16.0.3, SVG Export Plug-In . SVG Version: 6.00 Build 0)  -->
<!DOCTYPE svg PUBLIC "-//W3C//DTD SVG 1.1//EN" "http://www.w3.org/Graphics/SVG/1.1/DTD/svg11.dtd">
<svg version="1.1" id="Logo" xmlns="http://www.w3.org/2000/svg" xmlns:xlink="http://www.w3.org/1999/xlink" x="0px" y="0px"
	 width="1268.422px" height="500px" viewBox="0 0 1268.422 500" enable-background="new 0 0 1268.422 500" xml:space="preserve">
<g>
	<g>
		<path fill="#382319" d="M76.606,162.531c0-5.5,3.897-12.25,8.66-15l160.904-92.897c4.763-2.75,12.557-2.75,17.32,0l160.904,92.897
			c4.763,2.75,8.66,9.5,8.66,15v185.797c0,5.5-3.897,12.25-8.66,15l-160.904,92.898c-4.763,2.75-12.557,2.75-17.32,0L85.267,363.328
			c-4.763-2.75-8.66-9.5-8.66-15V162.531z"/>
	</g>
	<path fill-rule="evenodd" clip-rule="evenodd" fill="#85D5F4" d="M218.732,404.617c-4.533,8.807-7.921,12.754-14.037,20.67
		c-24.773-13.734-49.54-27.48-74.338-41.166c-1.134-0.625-1.775-1.412-2.228-2.486c1.698-11.428,8.865-19.414,17.946-25.906
		c9.441-6.752,20.347-10.775,31.611-13.473c11.432-2.734,23.182-3.998,34.82-5.781c32.758-5.02,66.009-7.191,98.16-15.852
		c34.182-9.211,65.291-24.021,91.828-47.102c9.084-7.9,17.596-16.453,24.412-26.946c2.998,9.712,1.604,19.599,1.822,29.333
		c0.217,9.852,0.189,19.713-0.041,29.568c-1.785,17.215-14.867,27.064-26.813,37.133c-13.49,11.369-29.951,17.963-46.754,23.58
		c-22.557,7.543-46.154,11.23-69.301,16.301c-3.482,0.762-5.503,1.627-10.457,2.277"/>
	<path fill-rule="evenodd" clip-rule="evenodd" fill="#4FBEE6" d="M426.521,305.086c0-19.172,0-38.344,0-57.507
		c-5.59,11.175-14.688,19.427-23.799,27.278c-13.281,11.443-27.688,21.658-43.834,29.09c-12.58,5.791-25.377,10.977-38.734,15.166
		c-13.945,4.375-28.458,6.035-42.354,10.324c-3.489,1.076-7.449,0.648-11.169,1.098c-13.586,1.641-27.334,2.848-40.685,5.264
		c-12.246,2.217-24.723,2.451-36.944,5.572c-10.56,2.695-21.16,4.922-31.189,9.221c-12.288,5.268-21.633,13.475-26.678,25.771
		c-0.746,1.818-2.13,2.941-3.166,4.42c-12.464-5.162-23.433-12.945-35.342-19.084c-3.062-1.58-7-3.291-10.203-4.365
		c-6.465-2.168-3.259-6.375-0.591-9.885c15.603-20.533,35.581-34.049,61.973-38.77c14.038-2.51,28.023-3.031,42.109-3.242
		c20.043-0.299,40.096-0.025,60.139-0.359c19.354-0.318,38.423-3.426,56.902-8.711c31.717-9.064,59.822-24.834,84.684-46.032
		c12.094-10.31,38.682-38.393,39.646-38.038c2.688,12.667,1.168,25.521,1.414,38.261c0.582,29.716,0.199,59.444,0.166,89.165
		c0,1.082-0.447,2.164-0.688,3.246c-2.654-2.01-2.119-4.924-2.156-7.6c-0.121-8.908-0.08-17.816,0.34-26.719
		C425.971,307.445,425.756,306.244,426.521,305.086z"/>
	<path fill-rule="evenodd" clip-rule="evenodd" fill="#C7EAF9" d="M303.394,378.393c14.862-3.32,29.804-6.063,44.458-10.607
		c12.371-3.842,24.174-8.555,35.602-14.43c17.578-9.047,31.115-22.482,41.711-39.104c1.75-2.746-0.188-6.285,2.309-8.709
		c0.096,0.973,0.193,1.945,0.293,2.916c0.805,13.594,0.943,27.186-0.061,40.775c-3.709,6.547-10.846,8.432-16.67,11.887
		c-31.346,18.605-62.887,36.877-94.4,55.201c-20.084,11.678-40.229,23.252-60.358,34.852c-9.07,5.227-16.191-0.381-23.417-4.525
		c-9.669-5.549-19.831-16.027-29.396-21.756c3.016-9.428,8.062-13.465,14.967-20.67c0.479-0.564,26.858-10.363,49.915-17.291
		C286.746,381.404,302.834,378.383,303.394,378.393"/>
	<g>
		<path fill-rule="evenodd" clip-rule="evenodd" fill="#ED4B24" d="M137.679,298.828c14.696-2.535,29.339-3.063,44.086-3.275
			c20.984-0.303,41.979-0.025,62.963-0.363c20.263-0.322,40.227-3.461,59.573-8.801c33.209-9.158,62.634-25.092,88.662-46.502
			c12.661-10.416,25.418-20.752,35.363-33.678c-0.006-0.123,0.01-0.234,0.014-0.352H77.574l1.125,136.1c0,0-0.059,0.488-0.054,0.652
			c0.003,0.113,0.063,0.445,0.063,0.445C94.3,325.502,112.663,303.146,137.679,298.828z"/>
	</g>
	<rect x="78.556" y="149.001" fill="#F6A31D" width="348.545" height="61.031"/>
	<g>
		<path fill="#FAC952" d="M418.689,153.003c5.5,0,10-0.481,10-1.07s-3.897-3.32-8.66-6.07L259.126,52.965
			c-4.763-2.75-12.557-2.75-17.32,0L80.901,145.862c-4.763,2.75-8.66,5.481-8.66,6.07s4.5,1.07,10,1.07H418.689z"/>
	</g>
	<g>
		<path fill="none" stroke="#39241A" stroke-width="35" stroke-miterlimit="10" d="M61.75,150.996c0-5.5,3.897-12.25,8.66-15
			l173.124-99.952c4.763-2.75,12.557-2.75,17.32,0l173.131,99.952c4.763,2.75,8.66,9.5,8.66,15V350.9c0,5.5-3.897,12.25-8.66,15
			l-173.131,99.951c-4.763,2.75-12.557,2.75-17.32,0L70.411,365.9c-4.763-2.75-8.66-9.5-8.66-15V150.996z"/>
	</g>
	<path fill-rule="evenodd" clip-rule="evenodd" fill="#39241A" d="M326.788,256.232c-2.243-1-4.258-3.215-5.749-5.364
		c-5.657-8.146-12.745-14.377-21.194-18.966c-4.34-2.356-7.33-5.706-8.714-10.938c-0.685-2.592-2.535-5.193-4.509-6.982
		c-7.342-6.648-18.622-8.55-21.667-20.36c-6.767-3.971-7.256-10.718-7.372-17.869c-0.075-4.67,0.609-10.992-1.847-13.523
		c-2.5-2.575-8.434-1.798-12.865-1.8c-7.939-0.003-15.931,0.02-23.806,0.947c-7.808,0.92-14.213,5.055-19.255,11.759
		c-1.613,2.146-6.156,4.86-6.933,4.186c-5.938-5.168-12.442-2.854-17.771-0.726c-5.88,2.349-11.381,2.433-17.214,1.964
		c-11.935-0.959-22.809,3.597-33.746,7.507c-2.355,0.842-4.694,3.342-5.946,5.725c-3.047,5.804-7.534,8.094-13.524,8.302
		c-8.679,0.303-17.355,0.72-26.032,1.079v59.876c5.738-4.754,9.407-11.223,9.02-21.186c-0.019-0.505,0.307-1.024,1.066-3.381
		c2.212,2.192,4.201,3.482,5.253,5.361c1.667,2.973,2.387,6.548,4.084,9.495c2.944,5.118,5.346,11.497,9.714,14.606
		c12.518,8.914,26.991,8.154,39.461,1.279c8.02-4.42,15.841-7.691,24.469-9.295c3.372-0.627,4.645-2.275,5.119-5.631
		c1.048-7.44,2.275-14.854,3.645-22.233c0.243-1.309,1.525-2.401,2.327-3.594c0.586,1.355,1.606,2.685,1.68,4.07
		c0.253,4.761-0.122,9.575,0.368,14.297c0.197,1.908,1.635,4.169,3.147,5.346c6.653,5.169,14.23,6.104,22.214,4.626
		c11.667-2.164,22.883-1.037,34.042,3.693c5.637,2.391,12.036,3.297,18.157,3.688c4.566,0.293,8.23,1.5,11.948,4.229
		c2.722,1.996,6.138,3.201,9.41,4.014c4.197,1.043,8.551,1.791,12.85,1.869c13.09,0.234,26.185,0.086,39.827,0.086
		C334.477,265.844,333.653,259.289,326.788,256.232z M149.426,209.828c-0.163,0.881-1.135,2.222-1.799,2.268
		c-4.42,0.308-6.359,3.71-8.76,6.891c-1.15,1.524-3.392,2.73-5.253,2.938c-7.844,0.877-10.903,7.879-15.079,13.176
		c-1.23,1.563-0.189,5.134-0.189,8.978c-3.508-4.277-5.157-7.361-2.951-12.428c1.903-4.369,2.333-9.322,6.391-12.615
		c0.984-0.798,0.54-3.436,0.973-5.165c0.793-3.176,1.75-6.307,2.638-9.456c0.615,0.092,1.23,0.184,1.845,0.274
		c0.289,2.9,0.579,5.8,0.869,8.699c0.611,0.07,1.223,0.14,1.834,0.209c0.837-6.594,1.673-13.188,2.498-19.686
		c7.026-1.819,14.046-3.637,20.604-5.335C151.775,196.18,150.683,203.021,149.426,209.828z M226.747,174.163
		c-0.731,3.568-1.783,7.064-2.733,10.581c-0.236,0.871-0.459,2.27-0.987,2.45c-7.593,2.607-7.186,10.35-9.503,16.33
		c-0.268,0.691-0.522,1.39-1.014,2.702c-3.196-5.217,0.074-12.041-7.039-14.317c0,10.693,0,20.966,0,31.248
		c-1.074,0-1.651,0.101-1.692-0.015c-2.047-5.677-3.352-11.796-8.49-15.584c0.994-11.613-8.944-14.362-14.77-20.446
		c-0.362-0.379-0.68-0.81-0.993-1.236c-0.102-0.137-0.122-0.34-0.179-0.513c2.929-4.475,5.818-4.803,8.884-1.007
		c4.062,5.027,9.692,4.563,13.951-0.557c4.066-4.886,8.508-9.459,13.104-13.79c1.495-1.41,3.954-2.1,6.039-2.291
		C226.25,167.266,227.771,169.164,226.747,174.163z M242.488,219.229c0-4.915-0.047-8.546,0.01-12.176
		c0.086-5.464,0.754-10.953-4.49-14.805c-1.149-0.845-1.358-3.648-1.405-5.567c-0.162-6.713-0.062-13.433-0.062-20.241
		c4.439-0.68,7.285,1.383,7.556,6.226c0.195,3.478-0.188,7.005,0.165,10.455c0.267,2.615,0.886,5.372,2.046,7.671
		C249.508,197.14,248.045,212.873,242.488,219.229z M259.02,230.828c-0.012,1.021-0.792,2.032-1.214,3.047
		c-0.644-0.026-1.288-0.053-1.931-0.08c-1.038-11.145-2.076-22.289-3.114-33.434c0.737-0.34,1.473-0.678,2.209-1.017
		c1.366,2.441,3.749,4.81,3.91,7.337C259.392,214.699,259.118,222.775,259.02,230.828z"/>
</g>
<g>
	<g>
		<text transform="matrix(1 0 0 1 513.7715 257.8848)" fill="#39241A" font-family="'Onyx'" font-size="225">Las Jordanas</text>
	</g>
	<g>
		<text transform="matrix(1 0 0 1 529.793 406.8232)" fill="#39241A" font-family="'Onyx'" font-size="175">– Casa Rural –</text>
	</g>
</g>
</svg>
